<svg width="24.000000" height="24.000000" viewBox="0 0 24 24" fill="none" xmlns="http://www.w3.org/2000/svg" xmlns:xlink="http://www.w3.org/1999/xlink">
	<desc>
			Created with Pixso.
	</desc>
	<defs/>
	<path id="arrow" d="M4.20947 11.3867L9.29297 6.29297C9.68359 5.90234 10.3164 5.90234 10.707 6.29297C11.0674 6.65332 11.0952 7.2207 10.7905 7.61328L7.41504 11L19 11C19.5522 11 20 11.4473 20 12C20 12.5127 19.6138 12.9355 19.1167 12.9932L19 13L7.41504 13L10.707 16.293C11.0674 16.6533 11.0952 17.2207 10.7905 17.6133C10.4297 17.9736 9.7793 18.0957 9.38721 17.79L4.29297 12.707C3.93262 12.3467 3.90479 11.7793 4.20947 11.3867Z" fill-rule="nonzero" fill="#C9CCD1"/>
</svg>
