<svg width="24.000000" height="24.000000" viewBox="0 0 24 24" fill="none" xmlns="http://www.w3.org/2000/svg" xmlns:xlink="http://www.w3.org/1999/xlink">
	<desc>
			Created with Pixso.
	</desc>
	<defs/>
	<path id="arrow" d="M19.7905 11.3867L14.707 6.29297C14.3164 5.90234 13.6836 5.90234 13.293 6.29297C12.9326 6.65332 12.9048 7.2207 13.2095 7.61328L16.585 11L5 11C4.44775 11 4 11.4473 4 12C4 12.5127 4.38623 12.9355 4.8833 12.9932L5 13L16.585 13L13.293 16.293C12.9326 16.6533 12.9048 17.2207 13.2095 17.6133C13.5703 17.9736 14.2207 18.0957 14.6128 17.79L19.707 12.707C20.0674 12.3467 20.0952 11.7793 19.7905 11.3867Z" fill-rule="nonzero" fill="#068359"/>
</svg>
